Title - Family Guy Presents Something Something Something Darkside
Year - 2009
Length Of Movie - 0:54:41
Original Air Date - 22 December 2009 
Genre - Animation / Comedy


MediaInfo
[code]Format						   : AVI
Format/Info					  : Audio Video Interleave
File size						: 350 MiB
Duration						 : 54mn 41s
Overall bit rate				 : 895 Kbps
Writing application			  : Nandub v1.0rc2
Writing library				  : Nandub build 1853/release

Video
ID							   : 0
Format						   : MPEG-4 Visual
Format profile				   : AdvancedSimple@L5
Format settings, BVOP			: Yes
Format settings, QPel			: No
Format settings, GMC			 : No warppoints
Format settings, Matrix		  : Default (H.263)
Muxing mode					  : Packed bitstream
Codec ID						 : XVID
Codec ID/Hint					: XviD
Duration						 : 54mn 41s
Bit rate						 : 750 Kbps
Width							: 512 pixels
Height						   : 384 pixels
Display aspect ratio			 : 4:3
Frame rate					   : 23.976 fps
Resolution					   : 24 bits
Colorimetry					  : 4:2:0
Scan type						: Progressive
Bits/(Pixel*Frame)			   : 0.159
Stream size					  : 293 MiB (84%)
Writing library				  : XviD 1.3.0.dev55

Audio
ID							   : 1
Format						   : MPEG Audio
Format version				   : Version 1
Format profile				   : Layer 3
Codec ID						 : 55
Codec ID/Hint					: MP3
Duration						 : 54mn 40s
Bit rate mode					: Variable
Bit rate						 : 132 Kbps
Channel(s)					   : 2 channels
Sampling rate					: 48.0 KHz
Resolution					   : 16 bits
Video delay					  : 8ms
Stream size					  : 51.6 MiB (15%)
Alignment						: Aligned on interleaves
Interleave, duration			 : 24 ms (0.58 video frame)
Interleave, preload duration	 : 302 ms[/code]

Trackers 
http://tracker.openbittorrent.com/announce 
http://denis.stalker.h3q.com:6969/announce[/code]

Infohash - 5b0b12ad9dad081ca13d265ab41014445b30365d

Live seed/peer info from all trackers - [img]http://torrent-stats.info/265a/1158d75e.png[/img]